<svg xmlns="http://www.w3.org/2000/svg" width="386.582" height="63.976" viewBox="0 0 386.582 63.976">
  <g id="layer1" transform="translate(-16.306 -26.492)">
    <path id="path2425" d="M23.23,44.81a1.534,1.534,0,0,0,1.1-.319,1.509,1.509,0,0,0,.321-1.093V34.52a2.634,2.634,0,0,1,.917-2.049,3.444,3.444,0,0,1,2.384-.82,3.645,3.645,0,0,1,2.453.842,2.579,2.579,0,0,1,.986,2.026v8.605a2.625,2.625,0,0,0,.229,1.411q.229.273,1.1.273h9.4a3.958,3.958,0,0,1,2.636.8,2.792,2.792,0,0,1,.94,2.254,2.849,2.849,0,0,1-1.009,2.413,4.93,4.93,0,0,1-3.026.774H32.721a1.066,1.066,0,0,0-1.032.569,4.8,4.8,0,0,0-.3,2.026V73.22q0,7.786,1.376,9.925t4.952,2.14a5.846,5.846,0,0,0,4.768-2.049,8.906,8.906,0,0,0,1.7-5.828q0-.774-.092-2.368T44,72.674a5.54,5.54,0,0,1,.8-3.255A2.723,2.723,0,0,1,47.163,68.3a3.239,3.239,0,0,1,2.98,1.389q.871,1.389.871,4.94,0,8.241-3.576,12.612T37.03,91.614q-6.786,0-9.72-3.437T24.376,76.59V53.643a4.7,4.7,0,0,0-.3-2.163,1.163,1.163,0,0,0-1.032-.433H19.47a3.309,3.309,0,0,1-2.407-.751,3.185,3.185,0,0,1-.757-2.345,3.14,3.14,0,0,1,.8-2.39,3.635,3.635,0,0,1,2.545-.751H23.23Z" transform="translate(0 -1.153)" fill="#3753a4"/>
    <path id="path2423" d="M71.523,41.7q0-6.92-1.039-8.309T66.262,32H63.477a4.136,4.136,0,0,1-2.52-.592,2.345,2.345,0,0,1-.752-1.958,2.717,2.717,0,0,1,.906-2.185,3.946,3.946,0,0,1,2.631-.774q.088,0,1.57.137t2.94.137q3.183,0,6.367-.228.575-.045.707-.046A2.9,2.9,0,0,1,77.6,27.2q.6.706.6,3.392V50.168a18.818,18.818,0,0,1,6.477-5.6,18.14,18.14,0,0,1,8.2-1.776q9.2,0,13.286,4.667t4.09,15.093V77.3q0,4.28.818,5.35t3.471,1.07a7.72,7.72,0,0,0,1.3-.137,7.456,7.456,0,0,1,1.039-.137,4.372,4.372,0,0,1,2.83.8,2.91,2.91,0,0,1,.973,2.39,2.552,2.552,0,0,1-.818,2.14,4.49,4.49,0,0,1-2.719.637q-.486,0-3.714-.364a53.491,53.491,0,0,0-5.969-.364,66.522,66.522,0,0,0-6.809.364q-3.537.364-3.8.364a3.463,3.463,0,0,1-2.388-.751,2.693,2.693,0,0,1-.84-2.117,2.949,2.949,0,0,1,.862-2.345,3.921,3.921,0,0,1,2.631-.751,14.784,14.784,0,0,1,1.857.137q1.061.137,1.326.137a2.639,2.639,0,0,0,2.476-1.047q.619-1.047.619-5.372V64.054q0-8.423-2.7-12t-8.887-3.574q-7.074,0-10.346,5.008T78.2,69.381V77.3q0,4.325.619,5.372a2.639,2.639,0,0,0,2.476,1.047q.265,0,1.349-.137a15.054,15.054,0,0,1,1.835-.137,3.831,3.831,0,0,1,2.609.751,2.993,2.993,0,0,1,.84,2.345,2.716,2.716,0,0,1-.818,2.14,3.447,3.447,0,0,1-2.365.728q-.265,0-3.8-.364a66.524,66.524,0,0,0-6.809-.364,53.738,53.738,0,0,0-5.947.364q-3.25.364-3.736.364a4.489,4.489,0,0,1-2.719-.637,2.552,2.552,0,0,1-.818-2.14,2.977,2.977,0,0,1,.928-2.39,4.185,4.185,0,0,1,2.785-.8,9.194,9.194,0,0,1,1.349.137,9.06,9.06,0,0,0,1.216.137q2.609,0,3.471-.956t.862-5.464V41.7Z" transform="translate(-9.812 0)" fill="#3753a4"/>
    <path id="path2421" d="M157.846,46.664q-9.4,0-14.914,6.527t-5.507,17.592q0,11.109,5.507,17.641c3.679,4.356,8.65,6.552,14.914,6.552a21.745,21.745,0,0,0,9.076-1.747,16.94,16.94,0,0,0,6.526-5.363,25.345,25.345,0,0,0,2.83-4.853,10.692,10.692,0,0,0,1.071-4.077,3.238,3.238,0,0,0-.892-2.329,2.945,2.945,0,0,0-2.218-.946c-1.389,0-2.526,1.248-3.442,3.737a18.629,18.629,0,0,1-1.683,3.737,13.453,13.453,0,0,1-4.64,4.416A13.143,13.143,0,0,1,158.2,88.91a11.915,11.915,0,0,1-9.815-4.635q-3.7-4.644-3.7-12.351v-.267h28.681c1.714,0,2.851-.291,3.442-.9s.892-1.825.892-3.616q0-9.333-5.4-14.9T157.846,46.664Zm.1,5.969a11.771,11.771,0,0,1,8.821,3.446,12.36,12.36,0,0,1,3.391,9.027v.582H145.124a15.251,15.251,0,0,1,4.028-9.561,11.77,11.77,0,0,1,8.8-3.494Z" transform="translate(-27.071 -4.508)" fill="#3753a4"/>
    <path id="path2417" d="M248.914,46.789q-9.681,0-15.348,6.479T227.9,70.812c0,7.376,1.885,13.27,5.663,17.641S242.444,95,248.842,95q9.887,0,15.538-6.479t5.64-17.714q0-11.155-5.64-17.592T248.914,46.789Zm.1,5.969a12.709,12.709,0,0,1,10.518,4.78c2.537,3.187,3.807,7.6,3.807,13.273q0,8.423-3.831,13.225a12.693,12.693,0,0,1-10.494,4.8q-6.909,0-10.66-4.683t-3.736-13.346q0-8.468,3.831-13.273a12.741,12.741,0,0,1,10.565-4.78Z" transform="translate(-47.293 -4.536)" fill="#3753a4"/>
    <path id="path2413" d="M296.275,49.549q-2.4.046-5.009.159t-2.827.114a3.271,3.271,0,0,1-2.226-.637,2.559,2.559,0,0,1-.712-2,2.666,2.666,0,0,1,.957-2.163,3.947,3.947,0,0,1,2.6-.8q.178,0,2.181.137t3.829.137h1.2q0-.319-.044-.933t-.045-.933q0-7.694,3.829-11.678t11.219-3.984a13.449,13.449,0,0,1,8.214,2.3,7.212,7.212,0,0,1,3.094,6.078,4.7,4.7,0,0,1-1.113,3.278,3.826,3.826,0,0,1-2.983,1.229,4.81,4.81,0,0,1-3.094-.911,2.986,2.986,0,0,1-1.135-2.459,8.149,8.149,0,0,1,.2-1.525,8.058,8.058,0,0,0,.2-1.389q0-.637-.846-.956a7.989,7.989,0,0,0-2.627-.319A7.551,7.551,0,0,0,305,34.8q-2.092,2.5-2.092,7.376,0,.911.022,1.389a6.408,6.408,0,0,0,.111.933q2.983,0,6.233-.228.757-.045.935-.046a4.635,4.635,0,0,1,2.827.751,2.492,2.492,0,0,1,1,2.117,2.58,2.58,0,0,1-.779,2.049,3.536,3.536,0,0,1-2.382.683q-.178,0-.935-.046-3.473-.228-6.723-.228V77.686q0,4.28.668,5.35t2.76,1.07q.178,0,1.38-.137a19.478,19.478,0,0,1,2.181-.137,4.572,4.572,0,0,1,2.916.751,2.863,2.863,0,0,1,.913,2.345,2.6,2.6,0,0,1-.89,2.14,3.99,3.99,0,0,1-2.582.728q-.312,0-4.14-.364t-7.346-.364a57.207,57.207,0,0,0-6.277.364q-3.294.364-3.651.364a4.636,4.636,0,0,1-2.783-.66,2.49,2.49,0,0,1-.868-2.117,2.9,2.9,0,0,1,.979-2.39,4.423,4.423,0,0,1,2.849-.8,9.314,9.314,0,0,1,1.358.137,9.182,9.182,0,0,0,1.224.137q2.627,0,3.495-.956t.868-5.464Z" transform="translate(-60.166 -0.106)" fill="#3753a4"/>
    <path id="path2411" d="M338.573,49.549q-2.386.046-4.971.159t-2.806.114a3.229,3.229,0,0,1-2.209-.637,2.57,2.57,0,0,1-.707-2,2.675,2.675,0,0,1,.95-2.163,3.9,3.9,0,0,1,2.585-.8q.177,0,2.165.137t3.8.137h1.193q0-.319-.044-.933t-.044-.933q0-7.694,3.8-11.678t11.135-3.984a13.276,13.276,0,0,1,8.152,2.3,7.23,7.23,0,0,1,3.071,6.078,4.72,4.72,0,0,1-1.1,3.278,3.783,3.783,0,0,1-2.961,1.229,4.749,4.749,0,0,1-3.071-.911,3,3,0,0,1-1.127-2.459,8.2,8.2,0,0,1,.2-1.525,8.114,8.114,0,0,0,.2-1.389q0-.637-.84-.956a7.874,7.874,0,0,0-2.607-.319,7.468,7.468,0,0,0-6.1,2.5q-2.077,2.5-2.077,7.376,0,.911.022,1.389a6.45,6.45,0,0,0,.11.933q2.96,0,6.186-.228.751-.045.928-.046a4.575,4.575,0,0,1,2.806.751,2.5,2.5,0,0,1,.994,2.117,2.591,2.591,0,0,1-.773,2.049,3.492,3.492,0,0,1-2.364.683q-.177,0-.928-.046-3.447-.228-6.672-.228V77.686q0,4.28.663,5.35t2.74,1.07q.177,0,1.37-.137a19.188,19.188,0,0,1,2.165-.137,4.512,4.512,0,0,1,2.894.751,2.874,2.874,0,0,1,.906,2.345,2.613,2.613,0,0,1-.884,2.14,3.94,3.94,0,0,1-2.563.728q-.309,0-4.109-.364t-7.291-.364a56.359,56.359,0,0,0-6.23.364q-3.27.364-3.623.364a4.574,4.574,0,0,1-2.762-.66,2.5,2.5,0,0,1-.862-2.117,2.91,2.91,0,0,1,.972-2.39,4.367,4.367,0,0,1,2.828-.8,9.177,9.177,0,0,1,1.348.137,9.049,9.049,0,0,0,1.215.137q2.607,0,3.469-.956t.862-5.464V49.549Z" transform="translate(-69.638 -0.106)" fill="#3753a4"/>
    <path id="path2409" d="M381.784,82.575V64q0-6.42-.844-7.99t-3.459-1.571h-3.122a3.025,3.025,0,0,1-2.152-.592,3.334,3.334,0,0,1,.274-4.143,2.9,2.9,0,0,1,2.13-.865q.253,0,1.919.137t3.1.137q2.4,0,5.02-.228.633-.045.759-.046a3.092,3.092,0,0,1,2.362.683q.591.683.591,3.142V82.575q0,4.189.78,5.35t3.27,1.161a6.862,6.862,0,0,0,1.266-.137,6.32,6.32,0,0,1,1.013-.137,4.1,4.1,0,0,1,2.721.774,2.884,2.884,0,0,1,.907,2.322,2.616,2.616,0,0,1-.78,2.14,4.132,4.132,0,0,1-2.594.637q-.506,0-3.544-.364a46.766,46.766,0,0,0-5.526-.364,77.66,77.66,0,0,0-9.492.592q-1.055.137-1.308.137a4.2,4.2,0,0,1-2.658-.66,2.589,2.589,0,0,1-.8-2.117,2.884,2.884,0,0,1,.907-2.322,4.1,4.1,0,0,1,2.721-.774,7.9,7.9,0,0,1,1.223.137,7.846,7.846,0,0,0,1.181.137q2.573,0,3.354-1.115t.78-5.4Z" transform="translate(-79.414 -4.994)" fill="#3753a4"/>
    <path id="path2407" d="M380.682,35.117a4.932,4.932,0,0,1,1.432-3.6,4.76,4.76,0,0,1,3.535-1.457,4.443,4.443,0,0,1,3.378,1.457,5.062,5.062,0,0,1,1.365,3.6A4.9,4.9,0,0,1,389,38.623a4.463,4.463,0,0,1-3.356,1.457,4.894,4.894,0,0,1-4.966-4.963Z" transform="translate(-81.44 -0.798)" fill="#3753a4"/>
    <path id="path2405" d="M404.717,70.767q0-11.291,5.6-17.756t15.347-6.465q7.87,0,12.7,3.8a12.015,12.015,0,0,1,4.831,9.9,7.966,7.966,0,0,1-1.946,5.646,6.842,6.842,0,0,1-5.269,2.094,5.241,5.241,0,0,1-3.52-1.07,3.774,3.774,0,0,1-1.246-3.028,4.6,4.6,0,0,1,.656-2.413,5.03,5.03,0,0,1,1.836-1.776,2.955,2.955,0,0,1,.656-.273,1.325,1.325,0,0,0,.962-1.229q0-2.185-2.667-3.938a11.361,11.361,0,0,0-6.383-1.753q-6.908,0-10.734,4.985t-3.826,14.046q0,7.922,3.695,12.725a11.684,11.684,0,0,0,9.728,4.8,12.021,12.021,0,0,0,6.733-1.753,12.531,12.531,0,0,0,4.372-5.577q.393-.865,1.006-2.732,1.486-4.325,3.716-4.325a3.115,3.115,0,0,1,2.317.933,3.208,3.208,0,0,1,.918,2.345,14.377,14.377,0,0,1-1.071,4.94,20.584,20.584,0,0,1-2.776,5.122,16.8,16.8,0,0,1-6.515,5.168,21.623,21.623,0,0,1-8.963,1.753q-9.313,0-14.734-6.511t-5.422-17.665h0Z" transform="translate(-86.812 -4.482)" fill="#3753a4"/>
    <path id="path2403" d="M482.058,47.021q-9.591,0-15.222,6.49T461.215,71q0,11.045,5.62,17.54t15.222,6.514a22.706,22.706,0,0,0,9.263-1.737,17.2,17.2,0,0,0,6.661-5.332,25.052,25.052,0,0,0,2.888-4.825,10.41,10.41,0,0,0,1.093-4.053,3.174,3.174,0,0,0-.911-2.316,3.045,3.045,0,0,0-2.264-.941c-1.418,0-2.578,1.241-3.513,3.715a18.3,18.3,0,0,1-1.717,3.715,12.193,12.193,0,0,1-11.137,5.742A12.286,12.286,0,0,1,472.4,84.417q-3.777-4.617-3.773-12.28v-.265H497.9c1.749,0,2.91-.289,3.513-.893s.911-1.814.911-3.595q0-9.28-5.516-14.813t-14.754-5.549Zm.1,5.935a11.815,11.815,0,0,1,12.464,12.4v.579H469.073a14.973,14.973,0,0,1,4.111-9.506,12.182,12.182,0,0,1,8.977-3.474Z" transform="translate(-99.439 -4.588)" fill="#3753a4"/>
  </g>
</svg>
